<?xml version="1.0" encoding="UTF-8" standalone="no"?><!DOCTYPE svg PUBLIC "-//W3C//DTD SVG 1.1//EN" "http://www.w3.org/Graphics/SVG/1.1/DTD/svg11.dtd"><svg width="100%" height="100%" viewBox="0 0 4236 2329" version="1.1" xmlns="http://www.w3.org/2000/svg" xmlns:xlink="http://www.w3.org/1999/xlink" xml:space="preserve" xmlns:serif="http://www.serif.com/" style="fill-rule:evenodd;clip-rule:evenodd;stroke-linejoin:round;stroke-miterlimit:2;"><rect x="2471.88" y="-9.375" width="25" height="1053.12"/><rect x="2634.38" y="-9.375" width="25" height="746.875"/><rect x="2757.81" y="-9.375" width="25" height="1053.12"/><rect x="2917.19" y="-50" width="25" height="1328.12"/><rect x="3010.94" y="-9.375" width="25" height="781.25"/><rect x="4153.12" y="-9.375" width="25" height="1053.12"/><rect x="3196.88" y="-50" width="25" height="1151.56"/><rect x="3300" y="-50" width="25" height="1571.88"/><rect x="3467.19" y="-50" width="25" height="1598.44"/><rect x="3637.5" y="-50" width="25" height="1728.12"/><rect x="3764.06" y="-31.25" width="25" height="1309.38"/><rect x="3953.12" y="-31.25" width="25" height="1728.12"/><rect x="4053.12" y="-31.25" width="25" height="1309.38"/><rect x="17.188" y="-9.375" width="25" height="1053.12"/><rect x="179.688" y="-9.375" width="25" height="746.875"/><rect x="303.125" y="-9.375" width="25" height="1053.12"/><rect x="462.5" y="-50" width="25" height="1328.12"/><rect x="556.25" y="-9.375" width="25" height="781.25"/><rect x="1698.44" y="-9.375" width="25" height="1053.12"/><rect x="1860.94" y="-9.375" width="25" height="746.875"/><rect x="1984.38" y="-9.375" width="25" height="1053.12"/><rect x="2143.75" y="-50" width="25" height="1328.12"/><rect x="2237.5" y="-9.375" width="25" height="781.25"/><rect x="742.188" y="-50" width="25" height="1151.56"/><rect x="845.313" y="-50" width="25" height="1571.88"/><rect x="1012.5" y="-50" width="25" height="1598.44"/><rect x="1182.81" y="-50" width="25" height="1728.12"/><rect x="1309.38" y="-31.25" width="25" height="1309.38"/><rect x="1498.44" y="-31.25" width="25" height="1728.12"/><rect x="1598.44" y="-31.25" width="25" height="1309.38"/></svg>